<mxfile host="app.diagrams.net" modified="2023-06-02T17:48:02.250Z" agent="Mozilla/5.0 (Windows NT 10.0; Win64; x64) AppleWebKit/537.36 (KHTML, like Gecko) Chrome/113.0.0.0 Safari/537.36" etag="VUkt1fm7IWO8d2qz5Ifq" version="21.3.6" type="device">
  <diagram id="C5RBs43oDa-KdzZeNtuy" name="Page-1">
    <mxGraphModel dx="1434" dy="796" grid="1" gridSize="10" guides="1" tooltips="1" connect="1" arrows="1" fold="1" page="1" pageScale="1" pageWidth="827" pageHeight="1169" math="0" shadow="0">
      <root>
        <mxCell id="WIyWlLk6GJQsqaUBKTNV-0" />
        <mxCell id="WIyWlLk6GJQsqaUBKTNV-1" parent="WIyWlLk6GJQsqaUBKTNV-0" />
        <mxCell id="-mWMrK76TUxrjVRVWJz4-2" style="edgeStyle=orthogonalEdgeStyle;rounded=0;orthogonalLoop=1;jettySize=auto;html=1;entryX=0.5;entryY=0;entryDx=0;entryDy=0;" edge="1" parent="WIyWlLk6GJQsqaUBKTNV-1" source="-mWMrK76TUxrjVRVWJz4-0" target="-mWMrK76TUxrjVRVWJz4-1">
          <mxGeometry relative="1" as="geometry" />
        </mxCell>
        <mxCell id="-mWMrK76TUxrjVRVWJz4-0" value="INICIO" style="ellipse;whiteSpace=wrap;html=1;" vertex="1" parent="WIyWlLk6GJQsqaUBKTNV-1">
          <mxGeometry x="354" y="60" width="120" height="80" as="geometry" />
        </mxCell>
        <mxCell id="-mWMrK76TUxrjVRVWJz4-5" value="" style="edgeStyle=orthogonalEdgeStyle;rounded=0;orthogonalLoop=1;jettySize=auto;html=1;" edge="1" parent="WIyWlLk6GJQsqaUBKTNV-1" source="-mWMrK76TUxrjVRVWJz4-1" target="-mWMrK76TUxrjVRVWJz4-3">
          <mxGeometry relative="1" as="geometry" />
        </mxCell>
        <mxCell id="-mWMrK76TUxrjVRVWJz4-1" value="numeros_pares(int)" style="rounded=0;whiteSpace=wrap;html=1;" vertex="1" parent="WIyWlLk6GJQsqaUBKTNV-1">
          <mxGeometry x="336" y="200" width="156" height="90" as="geometry" />
        </mxCell>
        <mxCell id="-mWMrK76TUxrjVRVWJz4-6" value="" style="edgeStyle=orthogonalEdgeStyle;rounded=0;orthogonalLoop=1;jettySize=auto;html=1;exitX=0.534;exitY=0.825;exitDx=0;exitDy=0;exitPerimeter=0;" edge="1" parent="WIyWlLk6GJQsqaUBKTNV-1" source="-mWMrK76TUxrjVRVWJz4-3" target="-mWMrK76TUxrjVRVWJz4-4">
          <mxGeometry relative="1" as="geometry" />
        </mxCell>
        <mxCell id="-mWMrK76TUxrjVRVWJz4-3" value="&quot;Imprimir nÃºmeros pares entre 0 y 100&quot;" style="shape=document;whiteSpace=wrap;html=1;boundedLbl=1;" vertex="1" parent="WIyWlLk6GJQsqaUBKTNV-1">
          <mxGeometry x="341" y="380" width="146" height="120" as="geometry" />
        </mxCell>
        <mxCell id="-mWMrK76TUxrjVRVWJz4-4" value="" style="shape=document;whiteSpace=wrap;html=1;boundedLbl=1;" vertex="1" parent="WIyWlLk6GJQsqaUBKTNV-1">
          <mxGeometry x="330" y="590" width="180" height="160" as="geometry" />
        </mxCell>
      </root>
    </mxGraphModel>
  </diagram>
</mxfile>
